<svg width="17" height="16" viewBox="0 0 17 16" fill="none" xmlns="http://www.w3.org/2000/svg">
<path d="M14.6667 12L14 12.7294C13.6464 13.1161 13.1668 13.3333 12.6668 13.3333C12.1668 13.3333 11.6873 13.1161 11.3337 12.7294C10.9796 12.3434 10.5001 12.1267 10.0002 12.1267C9.50033 12.1267 9.02084 12.3434 8.66673 12.7294M2.66675 13.3333H3.78311C4.10923 13.3333 4.27229 13.3333 4.42574 13.2965C4.56179 13.2638 4.69185 13.21 4.81115 13.1369C4.9457 13.0544 5.061 12.9391 5.2916 12.7085L13.6668 4.33334C14.219 3.78106 14.219 2.88563 13.6668 2.33334C13.1145 1.78106 12.219 1.78106 11.6668 2.33334L3.29159 10.7085C3.06099 10.9391 2.94568 11.0544 2.86323 11.189C2.79012 11.3083 2.73625 11.4383 2.70359 11.5744C2.66675 11.7278 2.66675 11.8909 2.66675 12.217V13.3333Z" stroke="#FEFEFE" stroke-width="1.6" stroke-linecap="round" stroke-linejoin="round"/>
</svg>
