<svg width="17" height="16" viewBox="0 0 17 16" fill="none" xmlns="http://www.w3.org/2000/svg">
<path d="M11.3334 3.99998V3.46665C11.3334 2.71991 11.3334 2.34654 11.1881 2.06133C11.0603 1.81044 10.8563 1.60647 10.6054 1.47864C10.3202 1.33331 9.94682 1.33331 9.20008 1.33331H8.13341C7.38668 1.33331 7.01331 1.33331 6.72809 1.47864C6.47721 1.60647 6.27324 1.81044 6.14541 2.06133C6.00008 2.34654 6.00008 2.71991 6.00008 3.46665V3.99998M7.33341 7.66665V11M10.0001 7.66665V11M2.66675 3.99998H14.6667M13.3334 3.99998V11.4666C13.3334 12.5868 13.3334 13.1468 13.1154 13.5746C12.9237 13.951 12.6177 14.2569 12.2414 14.4487C11.8136 14.6666 11.2535 14.6666 10.1334 14.6666H7.20008C6.07998 14.6666 5.51992 14.6666 5.0921 14.4487C4.71578 14.2569 4.40982 13.951 4.21807 13.5746C4.00008 13.1468 4.00008 12.5868 4.00008 11.4666V3.99998" stroke="#FEFEFE" stroke-width="1.6" stroke-linecap="round" stroke-linejoin="round"/>
</svg>
